<svg xmlns="http://www.w3.org/2000/svg" width="233" height="192" viewBox="0 0 233 192" fill="none" class="h-[5.9rem] w-auto hover:text-[#e1713f]"><path d="M201.6 169C202.5 169.1 203.4 169.2 204.2 169.2C205.1 169.3 205.9 169.3 206.8 169.4C207.5 169.4 207.8 169.4 207.7 169.4C207.6 169.4 207.5 169.4 207.3 169.4C207.1 169.4 206.9 169.4 206.8 169.4C206.7 169.4 207 169.3 207.7 169.3C208.8 169.2 209.8 169.3 210.7 169.5C212 169.8 212.6 170.6 212.6 171.8C212.6 173.1 211.9 173.9 210.6 174.2C210.4 174.3 210.2 174.3 210 174.3C209.8 174.3 209.6 174.3 209.4 174.3C208.8 174.3 208.5 174.3 208.3 174.3C208.1 174.2 207.8 174.1 207.1 174L207 173.9C205.6 173.9 204.2 173.9 202.8 173.9C201.4 173.9 200.1 173.9 198.6 173.8C197.9 173.8 197.3 173.7 196.8 173.6C196.3 173.4 195.9 173.1 195.6 172.6C195.3 172.2 195.2 171.7 195.2 171.3C195.3 170.8 195.5 170.4 195.8 169.9C196.1 169.5 196.6 169.2 197 169.1C197.2 169 197.5 169 197.7 169C197.9 169 198.2 169 198.4 169C198.6 169 198.8 169 199.1 169C199.3 169 199.6 169 199.8 169H201.2H201.6Z" fill="currentColor"></path><path d="M42.6001 63.7001L42.7001 63.6001C42.7001 63.6001 42.7001 63.6001 42.6001 63.7001C42.6001 63.8001 42.4001 64.1001 42.6001 63.7001Z" fill="currentColor"></path><path d="M129.4 137.9C129.1 138.2 128.9 138.5 128.8 138.9C128.7 139.3 128.7 139.6 128.7 140.1C128.7 141 128.6 141.9 128.6 142.7C128.6 143.5 128.6 144.4 128.6 145.3V147.6C128.6 149.7 128.5 151.8 128.5 153.8C128.5 155.9 128.5 157.9 128.5 160C128.5 161.1 128.6 162.2 128.7 163.3C128.8 164.4 128.9 165.5 128.9 166.6C129 167.5 129 168.4 129 169.2C129 170 129 170.9 129 171.8C129 172 129 172.1 129 172.3C129 172.5 129 172.6 128.9 172.8C128.7 173.3 128.4 173.8 128 174C127.5 174.3 127 174.3 126.5 174.1C126.1 173.9 125.7 173.7 125.4 173.5C125.1 173.2 124.9 172.8 124.8 172.3L124.3 167.6L124 165C124 164.7 123.9 164.4 123.9 164.1C123.9 163.8 123.9 163.5 123.9 163.2C124 162.4 124 161.6 123.9 160.9C123.8 160.1 123.8 159.3 123.8 158.6C123.8 157.4 123.8 156.1 123.8 154.9C123.8 153.7 123.8 152.4 123.8 151.2C123.8 150.5 123.7 149.9 123.7 149.2C123.7 148.5 123.6 147.8 123.6 147.2C123.6 146.9 123.5 146.6 123.5 146.2C123.5 145.9 123.5 145.5 123.6 145.2C123.8 144.3 123.8 143.3 123.9 142.4C123.9 141.4 123.9 140.5 123.9 139.6C123.9 139.2 123.9 138.8 123.8 138.3C123.7 137.9 123.5 137.5 123.2 137.2C122.4 136.5 121.5 136.4 120.5 136.7C120.1 136.8 119.6 136.9 119.2 136.9C118.5 137 118 136.9 117.6 136.6C117.2 136.3 116.8 135.9 116.5 135.4C115.9 134.4 116.1 133.5 117.1 132.8C117.7 132.4 118.3 132.2 118.9 132.2C119.6 132.1 120.3 132.1 121 132C121.7 131.9 122.4 131.9 123.1 131.9C124 131.9 124.9 132 125.7 132C126.6 132.1 127.4 132.1 128.3 132.2L133.7 132.9C133.9 132.9 134.2 133 134.4 133C134.7 133.1 134.9 133.1 135.1 133.3C136.1 133.8 136.4 134.6 136.2 135.8C136.1 136.3 135.8 136.8 135.4 137.1C135 137.4 134.5 137.6 134 137.6C133.6 137.6 133.2 137.5 132.8 137.5C132.4 137.5 132 137.5 131.6 137.4C131 137.3 130.2 137.4 129.4 137.9Z" fill="currentColor"></path><path d="M153.5 153.6C153.5 155 153.5 156.3 153.4 157.6C153.3 158.9 153.1 160.2 152.9 161.5L152.8 163.3C152.7 163.7 152.7 164.2 152.6 164.6C152.5 165 152.4 165.5 152.3 165.9C152.1 166.6 151.8 167.3 151.6 168C151.3 168.7 151 169.4 150.6 170C150 171 149.3 171.8 148.5 172.5C147.7 173.2 146.6 173.7 145.4 173.8C144.9 173.9 144.5 173.9 144.1 174C143.7 174 143.2 174 142.8 173.8C141.6 173.4 140.7 172.8 140 171.9C139.3 171 138.9 170.1 138.6 169.1C138.3 168.1 138.1 167.1 138 166.1C137.8 164.9 137.7 163.6 137.6 162.4C137.5 161.2 137.4 160 137.3 158.7C137.3 158.3 137.3 158 137.3 157.6C137.3 157.2 137.4 156.9 137.4 156.5C137.4 156.1 137.4 155.7 137.4 155.4C137.4 155 137.4 154.7 137.4 154.3C137.3 153.5 137.3 152.7 137.2 152C137.1 151.2 137.2 150.4 137.2 149.7C137.2 149.1 137.2 148.5 137.2 147.9C137.1 146.4 137.2 144.9 137.3 143.5C137.5 142 137.6 140.5 137.8 139.1C137.9 138 138.2 137 138.7 136.2C139.2 135.3 139.8 134.5 140.4 133.8C141.1 133.1 141.9 132.5 142.9 132.2C143.9 131.9 144.9 131.8 146 131.9C147.1 132 148 132.4 148.9 133C149.8 133.6 150.5 134.5 151 135.7C152 137.9 152.6 140.2 152.8 142.6C152.9 144.4 153 146.2 153.1 148C153.2 149.9 153.3 151.7 153.5 153.6ZM141.7 151.5C141.7 152.8 141.8 154.2 141.8 155.5C141.8 156.8 141.8 158.2 141.9 159.6C141.9 160 141.9 160.5 142 160.9C142.1 161.3 142.1 161.8 142.1 162.3C142.2 163 142.2 163.7 142.3 164.4C142.4 165.1 142.4 165.8 142.5 166.6C142.6 167.1 142.7 167.6 143 168C143.3 168.5 143.8 168.9 144.4 168.9C145 169 145.5 168.8 146 168.4C146.3 168.1 146.6 167.7 146.9 167.1C147.4 166 147.8 164.8 147.9 163.6L148.3 161.3C148.5 160.1 148.6 158.8 148.7 157.5C148.8 156.2 148.8 155 148.7 153.7C148.6 152.5 148.6 151.3 148.5 150.1C148.4 148.9 148.4 147.7 148.4 146.5C148.4 145.3 148.3 144.1 148.1 142.9C147.9 141.7 147.7 140.5 147.5 139.3C147.4 138.8 147.2 138.4 146.9 137.9C146.7 137.5 146.4 137.3 146 137C145.6 136.8 145.2 136.7 144.8 136.7C144.4 136.7 144 136.8 143.6 137C143.2 137.2 142.9 137.6 142.7 138.2C142.4 138.7 142.2 139.3 142.1 140C142 140.6 142 141.2 141.9 141.8C141.9 142.4 141.8 143 141.8 143.6C141.7 144.9 141.7 146.2 141.7 147.5C141.7 148.8 141.7 150.2 141.7 151.5Z" fill="currentColor"></path><path d="M167.6 133.8C167.6 133.1 167.8 132.5 168.2 132.1C168.7 131.7 169.2 131.5 169.8 131.5C170.4 131.5 170.9 131.7 171.4 132.1C171.9 132.5 172.1 133 172.2 133.8C172.4 138 172.5 142.3 172.6 146.4C172.7 150.6 172.7 154.8 172.6 159C172.6 159.8 172.5 160.8 172.5 161.9C172.5 163 172.4 164.1 172.2 165.3C172 166.4 171.8 167.6 171.5 168.7C171.2 169.8 170.8 170.8 170.2 171.6C169.6 172.4 168.9 173.1 168.1 173.6C167.2 174.1 166.2 174.3 165 174.3C163.9 174.3 162.9 174 162.1 173.4C161.3 172.8 160.5 172.1 159.9 171.2C159.3 170.3 158.8 169.3 158.4 168.1C158 167 157.7 165.8 157.5 164.7C157.3 163.5 157.1 162.4 156.9 161.3C156.8 160.2 156.7 159.2 156.6 158.4C156.3 154.4 156.2 150.4 156.3 146.4C156.4 142.4 156.5 138.4 156.6 134.4C156.6 133.7 156.9 133.1 157.4 132.8C157.9 132.4 158.4 132.3 159 132.3C159.6 132.3 160.1 132.5 160.5 132.8C161 133.1 161.2 133.7 161.2 134.4C161.1 137.7 161.1 140.9 161 144.1C160.9 147.3 161 150.5 161 153.8C161 155.3 161.1 156.8 161.2 158.4C161.3 159.9 161.5 161.4 161.8 162.9C161.9 163.3 162 163.9 162.2 164.6C162.4 165.3 162.6 166.1 162.8 166.8C163.1 167.6 163.4 168.2 163.7 168.8C164.1 169.4 164.5 169.7 165.1 169.8C165.7 169.9 166.2 169.5 166.6 168.6C167 167.7 167.3 166.5 167.6 165C167.8 163.5 168 161.7 168.1 159.7C168.2 157.7 168.3 155.6 168.3 153.5C168.3 151.3 168.3 149.2 168.2 147.1C168.1 145 168.1 143 168 141.2C167.9 139.4 167.8 137.9 167.8 136.6C167.7 135.1 167.7 134.2 167.6 133.8Z" fill="currentColor"></path><path d="M177.8 173.2L177 172.9C176.3 172.6 175.9 172.1 175.8 171.3C175.7 170.2 175.6 169.2 175.6 168C175.6 164 175.5 160 175.6 156.1C175.6 152.2 175.6 148.2 175.6 144.2C175.6 142.6 175.6 141.1 175.6 139.5C175.6 137.9 175.6 136.4 175.6 134.8C175.6 133.8 175.7 133.1 176 132.6C176.3 132.2 176.9 131.8 177.9 131.5C180.4 130.7 182.7 130.9 185 132.2C188.8 134.3 191 137.5 191.6 141.7C191.8 143.3 191.7 144.9 191.5 146.5C191.2 148 190.7 149.5 190 151C189.6 151.9 189 152.7 188.2 153.3C187.1 154.3 186.8 155.5 187.3 157L190.7 166.5C191 167.2 191.2 168 191.5 168.7C191.8 169.4 192 170.2 192.2 170.9C192.5 171.7 192.5 172.4 192.1 173C191.6 173.9 190.9 174.3 190.1 174.3C189.3 174.3 188.7 174 188.1 173.4C187.9 173.2 187.8 173 187.7 172.8C187.6 172.6 187.5 172.4 187.4 172.2C187.3 171.9 187.2 171.7 187.1 171.4C187 171.1 186.9 170.9 186.8 170.6C186.4 169 185.9 167.4 185.3 165.9C184.7 164.4 184.2 162.8 183.6 161.2C183.5 160.8 183.4 160.4 183.3 160C183.2 159.6 183 159.2 182.9 158.8C182.8 158.6 182.7 158.3 182.6 158.1C182.5 157.9 182.4 157.6 182.2 157.4C182 157 181.6 156.8 181 156.9C180.7 157 180.5 157.1 180.4 157.3C180.3 157.5 180.2 157.7 180.1 157.9L180 159.3V170.2C180 170.7 180 171.1 179.9 171.4C179.8 171.7 179.7 172 179.6 172.2C179.4 172.4 179.2 172.6 178.9 172.8C178.7 172.9 178.3 173 177.8 173.2ZM181.8 136C181.1 136.2 180.7 136.4 180.5 136.8C180.3 137.2 180.2 137.6 180.2 138.2C180.2 139.8 180.2 141.3 180.2 142.9C180.2 144.5 180.2 146 180.2 147.6C180.2 147.8 180.2 148.1 180.2 148.3C180.2 148.5 180.2 148.7 180.3 148.9C180.5 149.8 180.9 150.4 181.6 150.7C182.3 151 183 150.9 183.8 150.5C184 150.4 184.2 150.2 184.4 150.1C184.6 149.9 184.8 149.8 185 149.6C185.2 149.3 185.5 149 185.7 148.6C185.9 148.3 186.1 147.9 186.2 147.6C187.5 143.9 186.8 140.5 184.2 137.5C183.5 136.7 182.7 136.2 181.8 136Z" fill="currentColor"></path><path d="M204.5 146.3C205.3 147.1 206.1 148 206.9 148.8C207.7 149.7 208.3 150.6 208.9 151.5C209.4 152.5 209.8 153.5 210.1 154.6C210.4 155.7 210.4 156.9 210.2 158.1C210 159.2 209.7 160.1 209.2 161C208.7 161.9 208.1 162.7 207.3 163.4C206.5 164.1 205.7 164.6 204.7 165C203.7 165.4 202.7 165.5 201.6 165.4C200.5 165.3 199.5 165 198.6 164.5C197.7 164 197 163.3 196.4 162.5C195.8 161.7 195.4 160.8 195.2 159.8C195 158.8 195 157.8 195.2 156.7C195.4 156 195.7 155.5 196.2 155.3C196.7 155.1 197.3 155 197.9 155.2C198.5 155.4 198.9 155.7 199.3 156.2C199.7 156.7 199.8 157.3 199.6 158C199.5 158.6 199.5 159.1 199.7 159.5C199.9 159.9 200.2 160.3 200.6 160.5C201 160.7 201.5 160.9 202 160.9C202.5 160.9 203 160.8 203.5 160.6C204.6 160.1 205.3 159.2 205.5 158.1C205.8 157 205.7 155.9 205.3 154.8C204.9 153.7 204.3 152.7 203.5 151.9C202.7 151.1 201.8 150.2 201 149.4C200.2 148.6 199.4 147.8 198.7 146.9C198 146 197.4 145.1 196.9 144C196.5 143 196.2 141.9 196 140.8C195.8 139.7 195.8 138.6 196 137.5C196.2 136.5 196.6 135.5 197.2 134.6C197.8 133.7 198.7 133.1 199.9 132.6C200.9 132.2 202 131.9 203.1 131.8C204.2 131.7 205.2 131.9 206.2 132.2C207.2 132.6 208 133.1 208.6 133.9C209.3 134.7 209.7 135.7 209.8 136.9C209.9 137.6 209.7 138.2 209.3 138.6C208.9 139 208.4 139.2 207.8 139.2C207.2 139.2 206.7 139 206.1 138.6C205.6 138.2 205.3 137.7 205.2 136.9C205.2 136.6 205 136.5 204.6 136.4C204.2 136.3 203.9 136.3 203.4 136.4C203 136.5 202.6 136.5 202.1 136.7C201.7 136.8 201.4 136.9 201.3 137C200.6 137.4 200.3 137.9 200.3 138.6C200.3 139.3 200.4 139.9 200.5 140.6C200.8 141.8 201.3 142.9 202 143.8C202.8 144.5 203.6 145.4 204.5 146.3Z" fill="currentColor"></path><path d="M125.4 33.2C125.2 33.4 125 33.7 125 33.9C124.9 34.2 124.9 34.3999 124.9 34.7999C124.9 35.4999 124.9 36.1 124.9 36.7C124.9 37.3 124.9 37.9999 124.9 38.5999V40.2999C124.9 41.7999 124.8 43.4 124.8 44.9C124.8 46.4 124.8 47.9 124.8 49.5C124.8 50.3 124.9 51.1 124.9 51.9C125 52.7 125 53.4999 125.1 54.2999C125.2 54.9999 125.2 55.6 125.2 56.2C125.2 56.8 125.2 57.4999 125.2 58.0999C125.2 58.1999 125.2 58.3 125.2 58.4C125.2 58.5 125.2 58.6 125.1 58.7C125 59.1 124.8 59.3999 124.4 59.5999C124.1 59.7999 123.7 59.8 123.3 59.7C123 59.6 122.7 59.4 122.5 59.2C122.3 59 122.1 58.6999 122.1 58.2999L121.8 54.9L121.7 52.9C121.7 52.7 121.6 52.4999 121.6 52.2999C121.6 52.0999 121.6 51.9 121.6 51.7C121.7 51.1 121.7 50.6 121.6 50C121.6 49.4 121.5 48.8999 121.5 48.2999C121.5 47.3999 121.5 46.4999 121.5 45.5999C121.5 44.6999 121.5 43.8 121.5 42.9C121.5 42.4 121.4 41.9 121.4 41.4C121.4 40.9 121.4 40.4 121.4 39.9C121.4 39.7 121.3 39.4 121.3 39.2C121.3 39 121.3 38.7 121.4 38.5C121.5 37.8 121.6 37.1 121.6 36.4C121.6 35.7 121.6 34.9999 121.6 34.2999C121.6 33.9999 121.6 33.7 121.5 33.4C121.4 33.1 121.3 32.7999 121.1 32.5999C120.5 32.0999 119.8 31.9999 119.1 32.2999C118.8 32.3999 118.5 32.4 118.2 32.4C117.7 32.5 117.3 32.4 117 32.2C116.7 32 116.4 31.6999 116.2 31.2999C115.7 30.5999 115.9 29.9 116.6 29.4C117 29.1 117.5 29 117.9 29C118.4 28.9 118.9 28.8999 119.5 28.7999C120 28.7999 120.5 28.7 121.1 28.7C121.8 28.7 122.4 28.7999 123 28.7999C123.6 28.7999 124.3 28.9 124.9 29L128.9 29.5C129.1 29.5 129.2 29.6 129.4 29.6C129.6 29.6 129.8 29.6999 129.9 29.7999C130.6 30.1999 130.9 30.8 130.7 31.6C130.6 32 130.4 32.2999 130.1 32.5999C129.8 32.7999 129.5 33 129.1 33C128.8 33 128.5 33 128.2 33C127.9 33 127.6 33 127.3 32.9C126.5 32.8 126 32.9 125.4 33.2Z" fill="currentColor"></path><path d="M139.5 49.6C140 49.5 140.3 49.4 140.5 49.1C140.7 48.9 140.9 48.6001 141 48.2001C141.1 48.0001 141.1 47.7 141.2 47.5C141.3 47.3 141.3 47 141.3 46.8C141.4 46.1 141.4 45.3 141.5 44.6C141.6 43.8 141.6 43.1001 141.4 42.4001C141.3 42.1001 141.3 41.7001 141.3 41.4001C141.3 41.1001 141.3 40.7001 141.3 40.4001C141.3 39.1001 141.3 37.8 141.3 36.5C141.3 35.2 141.3 33.9 141.2 32.6L141 30C141 29.3 141.3 28.9 142 28.6C142.4 28.4 142.8 28.4 143.2 28.5C143.6 28.6 143.9 28.9 144.1 29.3C144.2 29.6 144.3 29.9 144.4 30.4C144.5 31.2 144.5 32.1001 144.5 32.9001C144.5 33.7001 144.6 34.6001 144.6 35.4001C144.7 36.8001 144.7 38.2 144.7 39.5C144.7 40.9 144.7 42.2 144.7 43.6C144.7 44.5 144.7 45.4 144.6 46.3C144.5 47.2 144.4 48.0001 144.1 48.9001C143.8 50.0001 143.3 50.9001 142.8 51.7001C142.1 52.7001 141.2 53.2001 140 53.2001C139.9 53.2001 139.8 53.2001 139.7 53.2001C139.6 53.2001 139.5 53.2001 139.4 53.2001C138.4 53.3001 137.6 53.1001 136.9 52.7001C136.2 52.3001 135.6 51.7001 135.1 50.9001C134.6 50.2001 134.2 49.4 134 48.5C133.7 47.7 133.5 46.8001 133.4 45.9001C133.2 44.6001 133 43.4 132.9 42.1C132.8 40.9 132.8 39.6 132.9 38.3C133 37.9 133 37.4 132.9 37C132.8 36.6 132.8 36.1 132.8 35.7L133 32.9001C133 32.5001 133 32.2 133 31.8C133 31.5 133 31.1 133 30.7C133 30.4 133 30.1 133.1 29.8C133.2 29.5 133.4 29.2 133.6 29C133.8 28.8 134.1 28.6 134.3 28.5C134.5 28.4 134.8 28.4 135.1 28.5C135.8 28.7 136.3 29.2 136.3 29.9C136.3 30.4 136.3 30.9 136.3 31.3C136.2 32.4 136.1 33.4001 136.1 34.4001C136.1 35.4001 136.1 36.5 136.2 37.5C136.2 37.6 136.2 37.8001 136.2 37.9001C136.2 38.0001 136.2 38.2 136.2 38.3C136.1 39.2 136.1 40.1 136.2 41C136.3 41.9 136.4 42.7 136.4 43.6C136.5 45.2 136.8 46.6001 137.5 47.9001C137.7 48.3001 137.9 48.6001 138.2 48.9001C138.6 49.4001 139 49.6 139.5 49.6Z" fill="currentColor"></path><path d="M137.3 56.7C137.9 56.8 138.5 56.7999 139.2 56.7999C139.8 56.7999 140.4 56.9 141 56.9C141.5 56.9 141.7 56.9 141.7 56.9C141.7 56.9 141.6 56.9 141.4 56.9C141.2 56.9 141.1 56.9 141.1 56.9C141 56.9 141.3 56.8999 141.7 56.7999C142.5 56.6999 143.2 56.8 143.8 57C144.7 57.2 145.1 57.7999 145.1 58.5999C145.1 59.4999 144.6 60.0999 143.7 60.2999C143.6 60.3999 143.4 60.4 143.3 60.4C143.2 60.4 143 60.4 142.9 60.4C142.5 60.4 142.2 60.4 142.1 60.4C142 60.3 141.7 60.3 141.3 60.2C140.3 60.2 139.3 60.2 138.4 60.2C137.4 60.2 136.5 60.1999 135.5 60.0999C135 60.0999 134.6 60 134.3 59.9C133.9 59.8 133.6 59.5 133.4 59.2C133.2 58.9 133.1 58.5999 133.1 58.2999C133.2 57.9999 133.3 57.5999 133.5 57.2999C133.7 56.9999 134 56.7999 134.4 56.7999C134.6 56.6999 134.7 56.7 134.9 56.7C135.1 56.7 135.2 56.7 135.4 56.7C135.5 56.7 135.7 56.7 135.9 56.7C136.1 56.7 136.2 56.7 136.4 56.7H137.3Z" fill="currentColor"></path><path d="M152.1 56.7C152.7 56.8 153.3 56.7999 154 56.7999C154.6 56.7999 155.2 56.9 155.8 56.9C156.3 56.9 156.5 56.9 156.5 56.9C156.5 56.9 156.4 56.9 156.2 56.9C156 56.9 155.9 56.9 155.9 56.9C155.8 56.9 156.1 56.8999 156.5 56.7999C157.3 56.6999 158 56.8 158.6 57C159.5 57.2 159.9 57.7999 159.9 58.5999C159.9 59.4999 159.4 60.0999 158.5 60.2999C158.4 60.3999 158.2 60.4 158.1 60.4C158 60.4 157.8 60.4 157.7 60.4C157.3 60.4 157 60.4 156.9 60.4C156.8 60.3 156.5 60.3 156.1 60.2C155.1 60.2 154.1 60.2 153.2 60.2C152.2 60.2 151.3 60.1999 150.3 60.0999C149.8 60.0999 149.4 60 149.1 59.9C148.7 59.8 148.4 59.5 148.2 59.2C148 58.9 147.9 58.5999 147.9 58.2999C148 57.9999 148.1 57.5999 148.3 57.2999C148.5 56.9999 148.8 56.7999 149.2 56.7999C149.4 56.6999 149.5 56.7 149.7 56.7C149.9 56.7 150 56.7 150.2 56.7C150.3 56.7 150.5 56.7 150.7 56.7C150.9 56.7 151 56.7 151.2 56.7H152.1Z" fill="currentColor"></path><path d="M160.1 51.5999C160 51.2999 160 51.0999 159.9 50.7999C159.6 49.8999 159.2 49.0999 158.8 48.1999C158.4 47.3999 158 46.4999 157.6 45.6999C157.5 45.3999 157.3 45.0999 157.2 44.8999C157.1 44.5999 157 44.2999 156.8 43.9999C156.5 43.2999 156.7 42.5999 157.2 42.0999C157.3 41.9999 157.5 41.8999 157.6 41.7999C157.7 41.6999 157.8 41.5999 157.9 41.4999C158.1 41.2999 158.2 41.0999 158.4 40.9999C158.5 40.7999 158.7 40.5999 158.8 40.3999C159.3 39.4999 159.6 38.4999 159.7 37.4999C159.8 36.4999 159.8 35.4999 159.5 34.5999C159.3 33.6999 158.8 32.7999 158.2 31.9999C157.6 31.1999 156.8 30.5999 156 29.9999C155.8 29.8999 155.6 29.7999 155.4 29.6999C155.2 29.5999 155 29.4999 154.8 29.3999C154 28.9999 153.2 28.7999 152.4 28.6999C151.6 28.5999 150.8 28.6999 149.9 29.0999C149.2 29.2999 148.7 29.5999 148.4 29.9999C148.1 30.3999 148 30.8999 148.1 31.5999V32.5999C148.1 33.9999 148.1 35.2999 148.2 36.5999C148.2 37.8999 148.2 39.2999 148.2 40.5999C148.2 42.2999 148.2 43.9999 148.2 45.5999C148.2 47.2999 148.2 48.9999 148.1 50.6999V51.2999C148.1 51.4999 148.1 51.6999 148.1 51.8999C148.2 52.2999 148.3 52.5999 148.6 52.8999C148.9 53.1999 149.2 53.2999 149.6 53.2999C150 53.3999 150.4 53.2999 150.7 52.9999C151 52.7999 151.3 52.3999 151.3 51.9999C151.4 51.8999 151.4 51.6999 151.4 51.5999C151.4 51.4999 151.4 51.2999 151.4 51.1999C151.4 50.2999 151.4 49.4999 151.4 48.5999C151.4 47.6999 151.4 46.8999 151.4 45.9999V45.3999C151.4 45.1999 151.4 44.9999 151.5 44.7999C151.6 44.2999 151.8 43.9999 152.4 43.8999C152.8 43.9999 153.1 44.0999 153.2 44.3999C153.3 44.5999 153.5 44.8999 153.6 45.0999L156.8 52.1999C156.9 52.3999 157 52.4999 157 52.6999C157.1 52.8999 157.2 52.9999 157.3 53.1999C157.6 53.5999 157.9 53.7999 158.2 53.7999C158.7 53.8999 159.1 53.7999 159.4 53.4999C159.8 53.2999 160 52.8999 160 52.3999C160.2 52.1999 160.2 51.8999 160.1 51.5999ZM156.1 37.7999C155.9 38.3999 155.4 38.8999 154.9 39.2999C154.3 39.6999 153.8 39.8999 153.1 39.8999C152.1 39.8999 151.6 39.3999 151.5 38.3999C151.5 37.9999 151.5 37.5999 151.5 37.1999V34.9999C151.5 34.5999 151.5 34.2999 151.5 33.9999C151.5 33.3999 151.7 32.9999 152 32.7999C152.3 32.5999 152.7 32.4999 153.3 32.6999C153.9 32.7999 154.4 33.0999 154.8 33.4999C155.2 33.8999 155.6 34.2999 155.8 34.7999C156 35.2999 156.2 35.7999 156.2 36.3999C156.4 36.7999 156.3 37.2999 156.1 37.7999Z" fill="currentColor"></path><path d="M166.3 32.7001V50.3001C166.3 50.6001 166.3 50.9001 166.3 51.2001C166.3 51.5001 166.2 51.8001 166.1 52.1001C165.8 52.8001 165.4 53.1001 164.7 53.1001C164.1 53.2001 163.6 52.9001 163.3 52.3001C163.2 52.1001 163.1 51.9001 163.1 51.7001C163.1 51.5001 163 51.3001 163 51.1001C162.9 50.9001 162.9 50.7001 162.9 50.5001C162.9 50.3001 162.9 50.1001 162.9 49.9001C162.8 48.2001 162.8 46.6001 162.9 44.9001C163 43.3001 163 41.6001 162.9 39.9001C162.9 39.6001 162.9 39.3001 162.9 39.0001C162.9 38.7001 162.8 38.4001 162.8 38.1001C162.8 37.8001 162.8 37.4001 162.8 37.1001C162.8 36.8001 162.8 36.4001 162.8 36.1001C162.9 35.3001 162.9 34.5001 163 33.7001C163 32.9001 163 32.1001 162.9 31.3001C162.8 31.0001 162.8 30.8001 162.9 30.5001C163 30.2001 163 30.0001 163.1 29.8001C163.3 29.1001 163.8 28.7001 164.6 28.6001C165.4 28.6001 166 29.0001 166.3 29.7001C166.4 30.0001 166.5 30.4001 166.5 30.6001C166.5 30.9001 166.5 31.2001 166.5 31.5001C166.3 32.1001 166.3 32.4001 166.3 32.7001Z" fill="currentColor"></path><path d="M165.6 57C165.3 56.6 165 56.5 164.6 56.5C164 56.5 163.6 56.7 163.2 57.2C162.8 57.7 162.7 58.2 162.9 58.8C163 59.4 163.4 59.8 163.9 60C164.4 60.2 165 60.2 165.5 59.9C165.7 59.7 165.9 59.5 166.1 59.3C166.3 59.1 166.3 58.8 166.4 58.6C166.5 58.3 166.4 58 166.3 57.7C166.1 57.4 165.9 57.2 165.6 57Z" fill="currentColor"></path><path d="M172.8 56.7C173.4 56.8 174 56.7999 174.7 56.7999C175.3 56.7999 175.9 56.9 176.5 56.9C177 56.9 177.2 56.9 177.2 56.9C177.2 56.9 177.1 56.9 176.9 56.9C176.7 56.9 176.6 56.9 176.6 56.9C176.5 56.9 176.8 56.8999 177.2 56.7999C178 56.6999 178.7 56.8 179.3 57C180.2 57.2 180.6 57.7999 180.6 58.5999C180.6 59.4999 180.1 60.0999 179.2 60.2999C179.1 60.3999 178.9 60.4 178.8 60.4C178.7 60.4 178.5 60.4 178.4 60.4C178 60.4 177.7 60.4 177.6 60.4C177.5 60.3 177.2 60.3 176.8 60.2C175.8 60.2 174.8 60.2 173.9 60.2C172.9 60.2 172 60.1999 171 60.0999C170.5 60.0999 170.1 60 169.8 59.9C169.4 59.8 169.1 59.5 168.9 59.2C168.7 58.9 168.6 58.5999 168.6 58.2999C168.7 57.9999 168.8 57.5999 169 57.2999C169.2 56.9999 169.5 56.7999 169.9 56.7999C170.1 56.6999 170.2 56.7 170.4 56.7C170.6 56.7 170.7 56.7 170.9 56.7C171 56.7 171.2 56.7 171.4 56.7C171.6 56.7 171.7 56.7 171.9 56.7H172.8Z" fill="currentColor"></path><path d="M175.6 39.3C176.2 39.9 176.8 40.5 177.4 41.2C178 41.8 178.5 42.5 178.9 43.2C179.3 43.9 179.6 44.6 179.8 45.4C180 46.2 180 47.1 179.9 48C179.8 48.8 179.5 49.5 179.2 50.2C178.8 50.9 178.4 51.5 177.8 52C177.2 52.5 176.6 52.9 175.9 53.2C175.2 53.5 174.4 53.6 173.6 53.5C172.8 53.4 172.1 53.2 171.4 52.8C170.7 52.4 170.2 51.9 169.8 51.3C169.4 50.7 169.1 50 168.9 49.3C168.7 48.6 168.7 47.8 168.9 47C169 46.5 169.3 46.1 169.7 46C170.1 45.8 170.5 45.8 170.9 45.9C171.3 46 171.7 46.2 171.9 46.6C172.2 47 172.2 47.4 172.1 47.9C172 48.3 172.1 48.7 172.2 49C172.4 49.3 172.6 49.6 172.9 49.7C173.2 49.9 173.5 50 173.9 50C174.3 50 174.6 49.9 175 49.8C175.8 49.4 176.3 48.8 176.5 47.9C176.7 47.1 176.6 46.3 176.3 45.5C176 44.7 175.6 44 175 43.3C174.4 42.7 173.8 42.1 173.2 41.5C172.6 40.9 172 40.3 171.5 39.7C171 39.1 170.6 38.4 170.2 37.6C169.9 36.9 169.7 36.1 169.5 35.2C169.4 34.4 169.3 33.6 169.5 32.8C169.6 32 169.9 31.3 170.4 30.7C170.9 30.1 171.5 29.6 172.4 29.2C173.1 28.9 173.9 28.7 174.7 28.6C175.5 28.5 176.3 28.6 177 28.9C177.7 29.2 178.3 29.6 178.8 30.1C179.3 30.7 179.6 31.4 179.7 32.3C179.8 32.8 179.6 33.2 179.3 33.5C179 33.8 178.6 33.9 178.2 33.9C177.8 33.9 177.4 33.8 177 33.5C176.6 33.2 176.4 32.8 176.3 32.3C176.3 32.1 176.1 32 175.9 31.9C175.6 31.8 175.4 31.8 175 31.9C174.7 31.9 174.4 32 174.1 32.1C173.8 32.2 173.6 32.3 173.5 32.3C173 32.6 172.8 33 172.8 33.5C172.8 34 172.9 34.5 173 34.9C173.2 35.8 173.6 36.6 174.1 37.3C174.4 38.1 175 38.7 175.6 39.3Z" fill="currentColor"></path><path d="M185.9 43.4001C185.5 43.6001 185.3 44.0001 185.3 44.4001C185.3 44.7001 185.3 45 185.3 45.3C185.3 45.6 185.3 45.9001 185.3 46.2001V51.3C185.3 52.2 184.9 52.8 184.2 53.1C183.8 53.3 183.4 53.4001 183 53.2001C182.6 53.1001 182.3 52.8001 182.1 52.4001C182 52.0001 181.9 51.7 181.9 51.3V41.5C181.9 40.3 181.9 39 181.9 37.8C181.9 36.6 181.8 35.3 181.8 34.1C181.8 33.5 181.8 32.9001 181.8 32.2001C181.8 31.6001 181.8 31 181.9 30.4C181.9 29.3 182.4 28.7 183.4 28.6C184.4 28.5 185 28.9 185.3 29.9C185.6 30.7 185.8 31.5 186 32.3C186.2 33.1 186.5 33.9001 186.7 34.7001C186.9 35.3001 187.1 35.9 187.3 36.5C187.5 37.1 187.8 37.6001 188.1 38.2001C188.2 38.5001 188.4 38.7 188.5 38.8C188.6 38.9 188.9 39.1 189.3 39.3C189.4 39.2 189.5 39.1 189.7 39C189.8 38.9 189.9 38.8001 190.1 38.7001C190.2 38.6001 190.3 38.5 190.3 38.3C190.4 38.2 190.4 38.0001 190.5 37.9001L192 33.3C192.2 32.7 192.4 32.1 192.6 31.5C192.8 30.9 193 30.3001 193.2 29.7001C193.5 28.9001 194.1 28.4 195 28.3C195.7 28.5 196.1 28.8 196.3 29C196.5 29.3 196.7 29.7 196.7 30.3C196.7 31.2 196.7 32.0001 196.7 32.9001C196.7 33.8001 196.7 34.6 196.7 35.5C196.7 36 196.7 36.5001 196.7 36.9001C196.7 37.4001 196.7 37.8 196.7 38.3V40C196.8 41.3 196.8 42.6 196.7 43.8C196.7 45.1 196.7 46.4 196.8 47.6C196.9 48.2 196.9 48.9 196.8 49.5C196.8 50.1 196.7 50.8001 196.7 51.4001C196.7 51.8001 196.5 52.1001 196.2 52.4001C195.9 52.7001 195.6 52.8001 195.2 52.9001C194.8 53.0001 194.4 52.9 194.1 52.6C193.8 52.4 193.6 52 193.5 51.6C193.4 51 193.4 50.5001 193.3 49.9001C193.3 49.3001 193.2 48.8001 193.2 48.2001C193.2 47.5001 193.2 46.9 193.2 46.3C193.2 45.7 193.2 45.0001 193.2 44.4001C193.2 44.1001 193.2 43.9001 193.1 43.7001C193 43.5001 192.9 43.3 192.6 43.1C192.3 43 192.1 43.1 192 43.3C191.9 43.5 191.7 43.6 191.7 43.8C191.6 44 191.5 44.3 191.4 44.5C191.3 44.8 191.3 45.0001 191.2 45.2001C191.1 45.7001 190.8 46.1001 190.5 46.4001C190.2 46.7001 189.8 47 189.2 47C188.8 47 188.5 46.8 188.2 46.6C187.9 46.4 187.7 46.1 187.6 45.8C187.5 45.5 187.3 45.2 187.2 44.8C187.1 44.5 186.9 44.1 186.7 43.8C186.6 43.6 186.5 43.4001 186.3 43.2001C186.4 43.4001 186.2 43.3001 185.9 43.4001Z" fill="currentColor"></path><path d="M186.2 56.7C186.5 56.7 186.9 56.7999 187.5 56.7999C188.1 56.7999 188.6 56.8 189.3 56.9C189.9 56.9 190.5 56.9 191 57C191.5 57.1 192 57 192.3 57C192.8 57 193 57 193 57C193 57 192.9 57 192.7 57C192.5 57 192.4 57 192.4 57C192.3 57 192.6 57 193 56.9C193.8 56.8 194.5 56.8999 195.1 57.0999C196 57.2999 196.4 57.9 196.4 58.7C196.4 59.6 195.9 60.2 195 60.4C194.9 60.5 194.7 60.5 194.6 60.5C194.5 60.5 194.3 60.5 194.2 60.5C193.8 60.5 193.5 60.5 193.4 60.5C193.3 60.4 193 60.3999 192.6 60.2999C192 60.2999 191.3 60.2999 190.6 60.2999C189.8 60.2999 189.1 60.2999 188.3 60.2999C187.5 60.2999 186.8 60.2999 186.1 60.2999C185.4 60.2999 184.8 60.3 184.3 60.2C183.8 60.2 183.4 60.1 183.1 60C182.7 59.9 182.4 59.5999 182.2 59.2999C182 58.9999 181.9 58.7 181.9 58.4C182 58.1 182.1 57.7 182.3 57.4C182.5 57.1 182.8 56.9 183.2 56.9C183.4 56.8 183.5 56.7999 183.7 56.7999C183.9 56.7999 184 56.7999 184.2 56.7999C184.3 56.7999 184.5 56.7999 184.7 56.7999C184.9 56.7999 185 56.7999 185.2 56.7999L186.2 56.7Z" fill="currentColor"></path><path d="M211.8 39.7999C211.8 38.9999 211.7 38.2 211.7 37.4C211.6 36.7 211.6 35.9 211.4 35.2C211.3 34.5 211.1 33.7999 210.9 33.0999C210.6 31.6999 209.9 30.5999 209 29.7999C208 29.0999 206.8 28.7 205.3 28.7H205C204.4 28.7 203.9 28.8 203.4 29.1C201.9 30 200.9 31.1999 200.5 32.7999C200.4 33.3999 200.3 33.9 200.3 34.4C200.3 34.9 200.2 35.5 200.2 36C200.1 36.7 200 37.5 200 38.2C200 38.9 200 39.7 200 40.4C200 41.3 200 42.2 200 43.2C200 44.1 200.1 45 200.2 46V46.0999C200.1 46.8999 200.2 47.7 200.4 48.4C200.6 49.1 200.8 49.7999 201.1 50.5999C201.4 51.3999 201.9 52 202.5 52.4C203.1 52.9 203.8 53.1 204.8 53H205.7C206.3 53.1 206.8 52.9999 207.3 52.7999C207.8 52.5999 208.3 52.3 208.7 51.9C209.4 51.3 209.9 50.5999 210.4 49.7999C210.8 49.0999 211.1 48.3 211.4 47.4C211.6 46.5 211.8 45.6999 211.8 44.7999C211.9 43.8999 211.9 43 211.9 42.2C211.8 41.3 211.8 40.4999 211.8 39.7999ZM208.1 45.5999C207.9 46.5999 207.5 47.6 207 48.5C206.7 49 206.4 49.3 206 49.4C205.7 49.5 205.3 49.5 205 49.4C204.7 49.3 204.4 49.0999 204.3 48.7999C204.2 48.4999 204.1 48.3 204 48C203.9 47.7 203.8 47.4 203.8 47.2C203.7 45.5 203.5 43.8999 203.4 42.2999C203.3 40.6999 203.3 38.9999 203.5 37.2999C203.6 36.7999 203.6 36.3 203.6 35.9C203.6 35.5 203.7 35 203.7 34.5C203.7 34.3 203.8 34.2 203.8 34C203.8 33.8 203.9 33.7 203.9 33.5C204 33.1 204.3 32.7999 204.5 32.5999C204.8 32.3999 205.1 32.2 205.5 32.2C206.4 32.1 207 32.4999 207.4 33.2999C207.5 33.4999 207.6 33.7 207.6 34C207.7 34.2 207.8 34.4 207.8 34.7C207.9 35.2 207.9 35.7 208 36.2C208.1 36.7 208.1 37.2 208.2 37.7C208.3 38.1 208.3 38.6 208.3 39C208.3 39.4 208.3 39.8999 208.4 40.2999C208.5 41.1999 208.5 42.0999 208.4 43.0999C208.4 43.6999 208.3 44.5999 208.1 45.5999Z" fill="currentColor"></path><path d="M204.7 56.7C205 56.7 205.2 56.7999 205.4 56.7999C205.5 56.7999 205.7 56.8 205.8 56.9C205.9 56.9 206 56.9 206.2 57C206.3 57 206.5 57 206.9 57C207.4 57 207.6 57 207.6 57C207.6 57 207.5 57 207.3 57C207.1 57 207 57 207 57C206.9 57 207.2 57 207.6 56.9C208.4 56.8 209.1 56.8999 209.7 57.0999C210.6 57.2999 211 57.9 211 58.7C211 59.6 210.5 60.2 209.6 60.4C209.5 60.5 209.3 60.5 209.2 60.5C209.1 60.5 208.9 60.5 208.8 60.5C208.4 60.5 208.1 60.5 208 60.5C207.9 60.4 207.6 60.3999 207.2 60.2999C206.8 60.2999 206.4 60.2999 206.1 60.2999C205.8 60.2999 205.5 60.2999 205.2 60.2999C204.9 60.2999 204.6 60.2999 204.2 60.2999C203.8 60.2999 203.4 60.2999 202.9 60.2999C202.4 60.2999 202 60.1999 201.7 60.0999C201.3 59.9999 201 59.7 200.8 59.4C200.6 59.1 200.5 58.8 200.5 58.5C200.6 58.2 200.7 57.8 200.9 57.5C201.1 57.2 201.4 57 201.8 57C202 56.9 202.1 56.9 202.3 56.9C202.5 56.9 202.6 56.9 202.8 56.9C202.9 56.9 203.1 56.9 203.3 56.9C203.5 56.9 203.6 56.9 203.8 56.9L204.7 56.7Z" fill="currentColor"></path><path d="M123.8 119C124.4 119.1 124.8 119.1 124.9 119.2C125.1 119.3 125.2 119.3 125.3 119.3C125.4 119.3 125.5 119.4 125.7 119.4C125.9 119.5 126.2 119.5 126.8 119.5C127.7 119.5 128.3 119.5 128.5 119.5C128.7 119.5 128.9 119.5 129 119.5C129.1 119.5 129.2 119.5 129.4 119.5C129.6 119.5 130.2 119.4 131.1 119.4C132.6 119.3 133.9 119.4 135.1 119.7C136.7 120.1 137.6 121.1 137.6 122.7C137.6 124.4 136.7 125.5 135 125.9C134.7 126 134.5 126.1 134.2 126.1C133.9 126.1 133.7 126.1 133.4 126.1C132.7 126 132.2 126 132 126.1C131.8 126 131.3 125.9 130.5 125.7C130.2 125.6 130 125.6 129.7 125.7C129.4 125.7 129.2 125.7 128.9 125.7C127.8 125.7 127 125.7 126.4 125.7C125.8 125.7 125.2 125.7 124.7 125.7C124.1 125.7 123.5 125.7 122.9 125.7C122.3 125.7 121.4 125.6 120.4 125.6C119.5 125.6 118.7 125.5 118.1 125.3C117.4 125 116.9 124.6 116.5 124C116.1 123.4 115.9 122.8 116 122.3C116.1 121.7 116.4 121.1 116.8 120.5C117.2 119.9 117.8 119.6 118.4 119.5C118.7 119.4 119 119.3 119.4 119.3C119.7 119.3 120 119.3 120.4 119.3C120.7 119.3 121 119.3 121.3 119.3C121.6 119.3 121.9 119.3 122.3 119.3H124.1V119H123.8Z" fill="currentColor"></path><path d="M133.6 81.5C133.1 81.4 132.6 81.2 132.2 81C130.8 80.3 130.1 79.2 130.1 77.7C130.1 77.4 130.1 77.1 130.1 76.8C130.1 76.5 130.1 76.2 130.1 75.8C130 75.1 129.7 74.5 129.1 74.1C128.6 73.7 127.9 73.6 127.2 73.8C126.5 74 125.9 74.3 125.4 74.7C124.9 75.2 124.6 75.7 124.2 76.3C123.6 77.5 123.2 78.7 123 80C122.8 81.2 122.6 82.5 122.6 83.8C122.5 84.5 122.5 85.3 122.5 86C122.5 86.7 122.5 87.5 122.5 88.2C122.6 89.9 122.7 91.7 122.8 93.5C122.9 95.3 123 97 123.1 98.8C123.2 99.9 123.4 100.9 123.7 101.9C124.1 102.9 124.5 103.8 125.1 104.4C125.7 105.1 126.3 105.4 127.1 105.4C127.8 105.3 128.5 105 128.9 104.2C129.3 103.6 129.5 103 129.7 102.4C129.9 101.8 130 101.1 130.1 100.5C130.2 100.1 130.2 99.6 130.3 99.2C130.4 98.8 130.4 98.3 130.5 97.9C130.6 97.5 130.8 97.1 131.1 96.7C132 95.6 133.1 95.3 134.4 95.6C135 95.8 135.4 96.1 135.7 96.5C136 96.9 136.1 97.4 136.3 97.9C136.5 98.9 136.6 99.9 136.6 100.8C136.7 101.8 136.5 102.7 136.1 103.7C135.4 105.4 134.6 107.2 133.7 109C133 110.5 131.8 111.4 130.1 111.9C128.9 112.3 127.8 112.5 126.8 112.5C124.4 112.6 122.4 111.6 120.8 109.6C118.3 106.3 116.9 102.5 116.6 98.1C116.4 95.4 116.3 92.7 116.3 90C116.3 87.3 116.4 84.6 116.4 81.9C116.4 79 117.1 76.2 118.4 73.5C119.1 72 120.1 70.7 121.3 69.6C122.5 68.5 123.9 67.6 125.5 67.1C126.7 66.7 127.9 66.5 129.1 66.7C130.3 66.8 131.4 67.2 132.4 67.7C133.4 68.3 134.3 69 135 70C135.7 71 136.2 72.1 136.5 73.4C136.7 74.4 136.8 75.3 136.9 76.3C137 77.3 136.8 78.2 136.4 79.2C136.1 79.9 135.9 80.4 135.6 80.6C135.1 80.8 134.5 81.1 133.6 81.5Z" fill="currentColor"></path><path d="M155.3 90.1C155.8 89.6 156.2 89.1 156.3 88.6C156.4 88.1 156.5 87.6 156.5 87.1C156.5 85.5 156.5 83.8 156.6 82.2C156.7 80.6 156.7 79 156.7 77.3C156.7 76.6 156.6 75.9 156.5 75.3C156.4 74.7 156.3 74 156.3 73.3C156.2 72.8 156.2 72.3 156.2 71.7C156.2 71.2 156.2 70.7 156.2 70.1C156.3 69.2 156.6 68.5 157.2 68C157.7 67.5 158.4 67.2 159.2 67.1C160.4 67 161.3 67.4 161.8 68.5C161.9 68.8 162 69.1 162.1 69.4C162.2 69.7 162.3 70 162.3 70.3C162.4 70.8 162.5 71.4 162.5 71.9C162.5 72.4 162.5 73 162.5 73.5C162.6 75 162.6 76.5 162.5 78C162.4 79.5 162.6 81 162.8 82.5V83.5C162.5 86.6 162.4 89.6 162.5 92.7C162.6 95.7 162.6 98.8 162.5 101.8C162.4 103.9 162.4 106 162.5 108.1C162.5 110.2 162.5 112.2 162.4 114.3C162.3 115.3 162.2 116.3 162.2 117.3C162.1 118.3 162.1 119.3 162.1 120.3C162.1 122 161.3 123.2 159.7 123.8C158.3 124.2 157.3 123.8 156.6 122.6C156.1 121.6 155.8 120.5 155.9 119.3C156 118.7 156 118.2 156 117.7C156 117.2 156 116.7 156 116.1C156 115.5 156 114.9 156 114.4C156 113.8 156 113.3 156.1 112.7C156.2 111.4 156.3 110.1 156.3 108.8C156.4 107.5 156.3 106.2 156.2 104.9C156.1 104.4 156.1 103.9 156.1 103.5C156.2 103 156.2 102.5 156.2 102.1V98.9C156.1 98.8 156 98.7 156 98.5C155.9 98.4 155.9 98.3 155.8 98.2C154.7 97.4 153.5 96.8 152.3 96.4C151.1 96.1 149.8 96.1 148.4 96.6C147.4 96.9 146.7 97.6 146.5 98.6C146.3 99 146.3 99.4 146.3 99.9C146.4 101.8 146.3 103.7 146.1 105.6C145.9 107.5 145.9 109.4 146 111.4C146.1 113 146.1 114.6 146 116.3C145.9 117.9 145.9 119.6 145.8 121.2C145.7 122.5 145.2 123.5 144.1 124.3C143.4 124.8 142.6 124.9 141.9 124.7C141.1 124.5 140.6 124.1 140.1 123.3C139.6 122.6 139.4 121.7 139.5 120.7C139.6 119.3 139.6 117.8 139.6 116.4C139.6 114.9 139.7 113.5 139.8 112.1C139.9 110.5 140 108.8 140 107.2C140 105.6 139.9 104 139.6 102.3C139.5 101.7 139.5 101.1 139.5 100.6C139.6 100 139.6 99.4 139.7 98.9C139.7 98.3 139.7 97.7 139.8 97.2C139.9 96.6 139.9 96.1 139.9 95.5C139.9 91.5 139.9 87.6 139.9 83.7C139.9 79.8 139.9 75.9 139.9 71.9V70C140.1 68.3 140.9 67.3 142.5 67.2C143.3 67.1 144 67.3 144.6 67.7C145.2 68.2 145.6 68.8 145.8 69.6C146.1 71.2 146.3 72.8 146.3 74.5C146.4 76.4 146.4 78.3 146.3 80.2C146.3 82.1 146.3 84 146.3 85.9C146.3 86.8 146.4 87.6 146.6 88.3C146.9 89.4 147.6 90 148.7 90C149.9 90.1 151.1 90.2 152.3 90.2C153 90.3 154.1 90.2 155.3 90.1Z" fill="currentColor"></path><path d="M174 96.4001V119.5C174 119.8 174 120 174 120.3C174 120.6 174 120.8 174 121.1C173.9 121.7 173.8 122.3 173.5 122.8C172.8 124.1 171.8 124.7 170.6 124.7C170 124.6 169.4 124.4 168.9 124C168.4 123.6 168 123 167.9 122.3C167.8 121.9 167.7 121.5 167.7 121.1C167.7 120.7 167.7 120.3 167.7 119.9V98.1001C167.7 97.4001 167.7 96.6001 167.6 95.9001C167.5 95.2001 167.5 94.4001 167.4 93.7001C167.4 93.4001 167.4 93.2001 167.4 92.9001C167.4 92.6001 167.4 92.4001 167.4 92.1001C167.7 89.3001 167.8 86.5001 167.7 83.8001C167.6 81.1001 167.6 78.3001 167.5 75.5001C167.5 74.8001 167.5 74.0001 167.5 73.2001C167.5 72.4001 167.6 71.7001 167.6 70.9001C167.7 69.4001 168.5 68.4001 170.1 67.8001C171.1 67.4001 172 67.6001 172.8 68.4001C173.2 68.8001 173.5 69.3001 173.7 69.8001C173.9 70.3001 174 70.9001 174.1 71.5001C174.2 71.8001 174.2 72.1001 174.2 72.5001C174.2 72.8001 174.2 73.1001 174.2 73.5001L174 96.4001Z" fill="currentColor"></path><path d="M185.2 97L184.7 113.4C184.7 113.5 184.7 113.6 184.7 113.7C184.7 113.8 184.7 113.9 184.7 114C184.8 115.2 185.1 116.1 185.6 116.6C186.1 117.1 186.9 117.4 188.1 117.5C188.6 117.5 189.2 117.5 189.7 117.5C190.2 117.5 190.8 117.5 191.3 117.5C194.1 117.4 196.8 117.4 199.5 117.4C202.2 117.4 205 117.4 207.7 117.4C208.2 117.4 208.7 117.4 209.1 117.4C209.5 117.4 210.1 117.5 210.5 117.6C211.3 117.7 212 118 212.5 118.6C213 119.2 213.2 119.8 213.2 120.6C213.3 121.4 213 122.1 212.5 122.7C212 123.3 211.3 123.7 210.6 123.8C210.3 123.9 210 124 209.6 124C209.3 124 208.9 124 208.5 124C205.1 124 201.7 124 198.4 124C195.1 124 191.7 124 188.4 124C187.5 124 186.6 124 185.8 124C185 124 184.1 124.1 183.3 124.1H182.5C180.8 124.2 179.6 123.7 179 122.7C178.4 121.7 178.1 120.5 178.3 119.3C178.4 118.1 178.5 116.8 178.5 115.6C178.5 114.4 178.5 113.1 178.4 111.9C178.4 110.6 178.4 109.3 178.4 108C178.4 106.7 178.5 105.4 178.5 104C178.5 101.7 178.5 99.3 178.5 97C178.5 94.7 178.6 92.3 178.6 90C178.6 89.6 178.6 89.1 178.7 88.7C178.8 88.2 178.8 87.8 178.8 87.4C178.9 87 178.9 86.5 178.9 86.1C178.9 85.6 178.9 85.2 178.9 84.8C179 82.4 179 80.1 179 77.8C179 75.5 179 73.1 179 70.8C179 69.8 179.3 69 179.8 68.3C180.5 67.5 181.5 67.1 182.5 67.3C183.6 67.5 184.4 68 184.8 69C185.1 69.6 185.2 70.2 185.2 70.7C185.2 72 185.2 73.3 185.2 74.6C185.2 75.9 185.2 77.2 185.1 78.5C185 79.1 185 79.8 184.9 80.4C184.8 81.1 184.8 81.7 184.8 82.4C184.7 84.3 184.7 86.1 184.7 88C184.7 89.9 184.7 91.8 184.7 93.7V97H185.2ZM199.2 68.8L206 68.2C207.3 68.1 208.7 68.1 210 68.2C210.7 68.3 211.3 68.5 211.8 68.9C212.3 69.3 212.6 69.8 212.7 70.4C212.8 71.1 212.7 71.7 212.5 72.3C212.2 72.9 211.8 73.4 211.1 73.7C210.7 73.9 210.4 74.1 210 74.1C209.6 74.2 209.2 74.2 208.8 74.3C208 74.4 207.1 74.5 206.3 74.5C205.5 74.5 204.6 74.5 203.8 74.5C203.3 74.6 202.7 74.6 202.2 74.5C201.7 74.5 201.1 74.5 200.6 74.5C200.3 74.5 200 74.5 199.7 74.6C199.4 74.7 199.1 74.7 198.8 74.8C198.1 75.1 197.6 75.5 197.4 76.2C197.3 76.5 197.2 76.7 197.2 77C197.1 77.3 197.1 77.5 197 77.8L196.8 83.8V84.6C197.1 86.2 198 87 199.5 87.1C199.8 87.1 200.1 87.1 200.4 87C200.7 86.9 201 86.9 201.4 86.8C201.8 86.7 202.2 86.7 202.6 86.7C203 86.7 203.4 86.7 203.8 86.7C204.5 86.8 205.2 87 205.7 87.5C206.2 88 206.5 88.5 206.7 89.1C206.8 89.8 206.7 90.5 206.4 91C206.1 91.5 205.7 91.9 205.1 92.2C204.8 92.4 204.4 92.6 204.1 92.7C203.7 92.8 203.4 92.9 203 93C202.5 93.1 202 93.2 201.5 93.2C201 93.2 200.5 93.3 200 93.4C199 93.6 198.3 94 197.7 94.5C197.1 95 196.8 95.8 196.7 96.8C196.5 99.2 196.5 101.6 196.7 104C196.8 105.6 197.7 106.5 199.4 106.6C200.2 106.7 201.1 106.8 201.9 106.8C202.7 106.8 203.6 106.8 204.4 106.9C205 107 205.7 107 206.3 107.1C207 107.2 207.6 107.2 208.2 107.3C209.8 107.6 210.6 108.5 210.7 110C210.7 110.7 210.5 111.3 210 111.9C209.5 112.5 209 112.9 208.3 113.1C207.8 113.2 207.3 113.3 206.8 113.3C206.3 113.3 205.8 113.3 205.3 113.3C204.6 113.3 203.9 113.3 203.2 113.3C202.5 113.3 201.8 113.2 201.1 113.2C200.2 113.2 199.3 113.2 198.5 113.2C197.7 113.2 196.8 113.4 195.9 113.6C195.1 113.8 194.3 113.8 193.5 113.8C192.4 113.8 191.6 113.2 191 112.1C190.8 111.7 190.6 111.3 190.5 110.8C190.2 108.9 190 107.1 189.8 105.3C189.7 103.5 189.7 101.6 189.9 99.8C190.1 98.6 190.2 97.4 190.2 96.2C190.2 95 190.2 93.8 190.1 92.6C190 91.7 189.9 90.8 189.9 90C189.9 89.2 190 88.3 190.1 87.4C190.3 86.3 190.4 85.3 190.5 84.1C190.6 82.9 190.6 81.9 190.5 80.8C190.4 79.5 190.4 78.1 190.4 76.8C190.4 75.5 190.4 74.1 190.4 72.8C190.4 72.6 190.4 72.5 190.4 72.3C190.4 72.1 190.4 71.9 190.4 71.8C190.7 70.8 191.1 70 191.8 69.4C192.4 68.7 193.3 68.4 194.3 68.5H199.1V68.8H199.2Z" fill="currentColor"></path><path d="M44.1 86.2H43.8H43.7001L43.5 86L43 85.7V85.5L42.9001 85.4V85.3V85L41.9001 79.2L38.8 79.9L38.3 85V85.2V85.3V85.4V85.9H37.9001L37.7001 86L37.6 86.1H37.4001H37.2001H35.9001H35.8H35.7001H35.6H35.5H35V85.6L34.9001 85.5V85.3C34.6001 84.3 32.4001 77.2 32.4001 74.7C32.4001 74.4 32.4 74 32.5 73.7C32 73.1 31.8 72.4 31.8 71.7C31.8 69.9 33.2 68.5 35 68.5C35.7 68.5 36.4 68.7 37 69.2C37.3 69.1 37.7 69.1 38 69.1H42.2001C42.3001 69.1 42.6001 69.1 42.7001 68.5C43.1001 65.2 43.9001 58.4 43.9001 56.6V56.5V56.3V56.2L44 56.1V55.9L44.2001 55.8L44.3 55.6H44.5L44.6 55.5H44.8H45.2001H45.3H45.5H45.6L45.7001 55.6H46.2001V56.1C46.9001 56.9 47.4001 57.6 47.7001 58.1C48.1001 58.3 48.7 58.5 49.3 58.9C49.7 59.2 50.1 59.4 50.3 59.6C50.6 59.8 51.2001 60.3 51.2001 61.1C51.2001 61.7 50.9001 62.4 49.7001 62.9C49.5001 63 49.3 63 49.1 63.1C49.9 65.6 51.2001 70.2 51.2001 72.6C51.2001 74.3 51.2 76.8 48 78.2L46.9001 85.4V85V85.1V85.3L46.8 85.5L46.6 85.8H46.5H46.4001L46.3 85.9H46.2001L46.1 86H45.8H45.6H44.1V86.2Z" fill="currentColor"></path><path d="M98.4 48.4C98.2 46.7 97.9 45 97.6 43.3C97.2 41.5 96.7 39.8 96.1 38C95.5 36.3 94.8 34.7 94 33.2C93.3 31.7 92.4 30.3 91.5 28.9C86.1 20.7 77.9 14.6 68.4 11.6C65.4 10.7 62.3 10.1 59.1 9.80001C57.9 9.70001 56.7 9.60001 55.5 9.60001C41.2 9.60001 28.6 16.6 20.7 27.3C19.3 29.2 18.1 31.1 17 33.2C16.2 34.7 15.5 36.3 14.9 38C13.7 41.3 12.9 44.8 12.5 48.3C12.4 49.7 12.3 51.2 12.3 52.7V141.8C12.3 155.1 18.3 167 27.8 174.9C31.3 177.9 35.3 180.3 39.7 182C40.2 182.2 40.6 182.4 41.1 182.6C45.6 184.2 50.4 185 55.4 185C64 185 72.1 182.5 78.8 178.1C84.4 174.5 89.1 169.6 92.5 163.8C94.6 160.2 96.3 156.3 97.3 152.1C98.1 148.8 98.5 145.4 98.5 141.9V52.7C98.7 51.3 98.6 49.8 98.4 48.4ZM62.5 18.6C68.3 19.8 73.6 22.4 78 26.1C78.1 26.2 78.2 26.2 78.2 26.3C80.5 28.3 82.6 30.6 84.3 33.2C85.5 35 86.6 37 87.5 39C87.7 39.4 87.8 39.8 88 40.2C89 42.8 89.7 45.5 90.1 48.4C90.1 48.5 90.1 48.5 90.1 48.6C87.5 49.7 84.6 50.3 81.6 50.3C69.7 50.3 60 40.6 60 28.7C60 25.1 60.9 21.6 62.5 18.6ZM20.6 80.1L20.9 80.4L25.3 84.9L30.9 90.6L35.4 95.2L31 99.8L25.9 105.1L22.4 108.7L21 110.2L20.7 110.5V80.1H20.6ZM24.5 148.6C23.9 151 23.7 153.5 23.7 156C23.1 154.7 22.6 153.3 22.2 151.9C21.3 148.8 20.7 145.4 20.7 141.9V140.9C22.6 141.2 24.6 141.4 26.7 141.4C26.8 141.4 26.9 141.4 27.1 141.4C25.9 143.7 25 146.1 24.5 148.6ZM55.5 176.8C48.5 176.8 42 174.7 36.5 171.2C35 170.3 33.7 169.2 32.4 168.1C31 165.3 30.2 162.2 29.9 159C29.8 158.2 29.8 157.4 29.8 156.6V156.1C29.8 155.2 29.8 154.3 29.9 153.5C30.1 151.8 30.4 150.2 30.8 148.7C31.1 147.5 31.5 146.4 32 145.3C31.9 146.4 31.9 147.5 32 148.6C32 148.9 32 149.2 32.1 149.5C32.3 151.9 32.9 154.1 33.7 156.2V156.3C35.3 160.2 37.7 163.5 40.9 166.1C45.7 170 51.9 172.2 58.5 171.6C58.6 171.6 58.7 171.6 58.8 171.6L76.5 169.9C70.7 174.2 63.4 176.8 55.5 176.8ZM48.5 137.7C48.1 138.3 47.7 138.8 47.3 139.4C46.6 140.2 45.9 140.9 45.1 141.6C43.1 143.4 40.7 144.7 38.1 145.4C38.3 143.5 38.7 141.7 39.4 140C39.4 139.9 39.4 139.9 39.5 139.8C40.9 136.6 43.1 133.8 46 131.9C47.6 130.8 49.4 129.9 51.3 129.4C51.2 130.7 51 131.9 50.6 133C50.2 134.6 49.4 136.3 48.5 137.7ZM53.7 162.3C54.2 163.3 54.6 164.3 54.9 165.4C50.8 165 47.1 163.3 44.2 160.7C42.5 159.2 41.1 157.3 40 155.2C39.5 154.2 39.1 153.2 38.8 152.1C41.1 152.3 43.4 152.9 45.4 153.9C46.6 154.5 47.8 155.3 48.9 156.2C50.9 157.9 52.6 160 53.7 162.3ZM86.5 158C85.6 159.7 84.6 161.3 83.4 162.9L79.7 163.3L79.1 157.2L82.2 156.9H82.3C83.9 156.8 85.4 157 86.8 157.6C86.7 157.7 86.6 157.9 86.5 158ZM90.4 141.9C90.4 143.1 90.3 144.3 90.2 145.5C90.2 145.8 90.1 146.1 90.1 146.4C89.8 148.6 89.3 150.7 88.6 152.8C88.4 153.3 88.3 153.7 88.1 154.2C88.5 153.5 88.8442 152.614 88.9442 151.714C87.9442 151.314 86.5 150.9 85.4 150.8C85.1 150.7 84.9 150.7 84.6 150.7C84.1 150.6 83.5 150.6 83 150.6C82.5 150.6 82 150.6 81.5 150.7C81.4 150.7 81.4 150.7 81.4 150.7L75.6 151.3C75.5 151.3 75.5 151.3 75.5 151.3C73.8 151.5 72.6 153 72.7 154.7L73.1 158.9L73.2 160.1L73.6 163.9L61.2 165.1C61 164.1 60.7 163.1 60.3 162.2C59 158.6 56.9 155.3 54 152.7C53.7 152.4 53.4 152.1 53 151.8C60.1 149.5 66.2 146.8 69.8 144.8C76.5 141.1 84.8 137.4 90.3 135V141.9H90.4ZM90.4 126.6C85.3 128.7 74.6 133.3 66.1 138C62.5 140 57.1 142.3 51.3 144.2C51.5 143.9 51.8 143.7 52 143.4C52.1 143.3 52.2 143.1 52.3 143C54.1 140.6 55.5 138 56.4 135.2C61.6 133.3 66 131.3 68.9 129.7C76 125.7 85 121.8 90.4 119.5V126.6ZM90.4 111C85.8 112.9 74.2 117.7 65.1 122.8C63 124 60.4 125.2 57.5 126.3C57.5 126 57.5 125.6 57.4 125.3C57.3 124.7 57.1 124.2 56.8 123.7C56.2 123 55.3 122.5 54.4 122.5C54.3 122.5 54.2 122.5 54.1 122.5C53.6 122.5 53.2 122.6 52.7 122.7C51.7 122.8 50.7 123 49.8 123.2C45.7 124.2 41.8 125.9 38.3 128.2C36.3 129.6 34.4 131.3 32.6 133.1C27.8 133.7 23.6 133.8 20.6 132.9V122.6C20.7 122.6 20.8 122.7 20.9 122.7C23.6 123.2 26.5 123.4 29.5 123.4C30.6 123.4 31.7 123.4 32.7 123.3C33.6 123.2 34.6 123.2 35.5 123.1C40 122.6 44.1 121.6 47.9 120.4C52.7 118.9 57.1 117 61.2 115C62.7 114.3 64.3 113.5 65.8 112.8C69.3 111.1 72.7 109.4 76.3 107.9C77.3 107.5 78.3 107 79.4 106.7C81.7 105.8 84 105.1 86.5 104.5C87.7 104.2 89 103.9 90.2 103.7V111H90.4ZM90.4 95.4C88.4 95.7 86.5 96.1 84.6 96.6C77.1 98.5 70.7 101.5 64.6 104.5C63.9 104.8 63.2 105.2 62.6 105.5C61.1 106.2 59.7 106.9 58.3 107.6C57 108.2 55.7 108.8 54.4 109.4C49.6 111.6 44.6 113.4 38.9 114.4C37.6 114.6 36.3 114.8 34.9 115C34.1 115.1 33.2 115.2 32.4 115.2C30.6 115.3 28.9 115.3 27.2 115.2L32.3 109.9L35.6 106.5L40.5 101.4L42.8 99L48.3 93.4L55 86.5L60.1 81.3H60.2L60.3 81.4L65.3 86.5L65.4 86.6L70.1 91.4L72.2 93.5L73.6 95L77.6 90.9L80.6 87.8L85.7 82.6L90.7 77.4V95.4H90.4ZM90.4 66L86.3 70.2L79.4 77.3L74.8 82L73.3 83.6L73.1 83.4L67.2 77.3L60.3 70.2L60 69.9L59.7 70.2L52.8 77.3L42.4 88.1L41 89.5L32.4 80.7L29.1 77.3L22.2 70.2L21 69L20.7 68.7V52.8C20.7 51.9 20.7 51 20.8 50.1C20.8 49.5 20.9 49 21 48.4C21.3 45.6 22 42.8 23 40.2C24 37.7 25.2 35.4 26.7 33.2C28.4 30.6 30.5 28.3 32.8 26.3C32.9 26.2 33 26.2 33.1 26.1C38.9 21.2 46.2 18.2 54.3 17.9C53 21.2 52.3 24.9 52.3 28.7C52.3 44.9 65.5 58.1 81.7 58.1C84.8 58.1 87.7 57.6 90.5 56.8V66H90.4Z" fill="currentColor"></path></svg>