<svg width="300" height="533" viewBox="0 0 300 533" fill="none" xmlns="http://www.w3.org/2000/svg"><path d="M119.447 235.256h-1.102l-.551-.556-1.378-.834v-.556l-.275-.279v-1.112l-2.756-16.126-8.541 1.946-1.378 14.18v2.503h-1.102l-.551.278-.276.278h-7.164v-1.39l-.275-.278v-.557c-.827-2.78-6.889-22.521-6.889-29.472 0-.834 0-1.946.276-2.78-1.378-1.668-1.929-3.615-1.929-5.561 0-5.005 3.858-8.897 8.817-8.897 1.93 0 3.858.556 5.511 1.946.827-.278 1.929-.278 2.755-.278h11.573c.275 0 1.102 0 1.378-1.668 1.102-9.175 3.306-28.082 3.306-33.087v-1.112l.276-.278v-.556l.551-.278.275-.556h.551l.276-.278h2.755l.276.278h1.377v1.39c1.929 2.224 3.307 4.171 4.133 5.561 1.103.556 2.756 1.112 4.409 2.224 1.102.834 2.204 1.39 2.755 1.947.827.556 2.48 1.946 2.48 4.17 0 1.668-.826 3.615-4.133 5.005-.551.278-1.102.278-1.653.556 2.204 6.951 5.786 19.741 5.786 26.414 0 4.726 0 11.677-8.817 15.57l-3.031 20.018v-1.112.834l-.275.557-.551.834h-.552l-.275.278h-.276l-.275.278h-5.511z" fill="#000"/><path d="M268.237 129.879c-.551-4.727-1.378-9.453-2.204-14.18-1.103-5.005-2.48-9.731-4.133-14.736q-2.48-7.09-5.787-13.346c-1.928-4.17-4.408-8.063-6.888-11.955-14.879-22.8-37.473-39.76-63.649-48.101q-12.4-3.754-25.625-5.005c-3.306-.278-6.613-.556-9.919-.556-39.402 0-74.12 19.463-95.887 49.213-3.857 5.283-7.164 10.565-10.195 16.404q-3.306 6.256-5.786 13.346c-3.306 9.175-5.51 18.907-6.613 28.638-.275 3.892-.551 8.063-.551 12.234v247.732c0 36.979 16.532 70.066 42.708 92.031a112.4 112.4 0 0 0 32.789 19.741c1.378.556 2.48 1.112 3.858 1.668 12.399 4.448 25.624 6.673 39.401 6.673 23.696 0 46.015-6.951 64.476-19.185 15.43-10.009 28.38-23.633 37.748-39.759 5.787-10.01 10.471-20.853 13.226-32.531q3.306-13.763 3.306-28.36v-248.01c.552-3.893.276-8.063-.275-11.956m-98.918-82.855c15.981 3.336 30.585 10.565 42.708 20.852.276.278.552.278.552.556 6.337 5.561 12.123 11.956 16.807 19.185 3.307 5.005 6.338 10.566 8.817 16.126.551 1.113.827 2.225 1.378 3.337 2.755 7.229 4.684 14.736 5.786 22.799v.556c-7.164 3.058-15.154 4.727-23.42 4.727-32.789 0-59.516-26.97-59.516-60.057 0-10.009 2.48-19.74 6.888-28.082M53.869 218.017l.827.834 12.124 12.512 15.43 15.848 12.399 12.79-12.124 12.79-14.052 14.736-9.644 10.009-3.857 4.171-.827.834v-84.524zm10.746 190.457c-1.653 6.673-2.204 13.624-2.204 20.575-1.653-3.615-3.03-7.507-4.133-11.4-2.48-8.619-4.133-18.073-4.133-27.804v-2.78c5.235.834 10.746 1.39 16.532 1.39h1.102c-3.306 6.395-5.786 13.068-7.163 20.019m85.417 78.407c-19.288 0-37.198-5.839-52.352-15.571-4.133-2.502-7.715-5.56-11.297-8.619-3.858-7.785-6.062-16.404-6.889-25.301-.275-2.225-.275-4.449-.275-6.673v-1.39c0-2.503 0-5.005.275-7.229q.828-7.09 2.48-13.346c.827-3.337 1.929-6.395 3.307-9.454a51 51 0 0 0 0 9.176c0 .834 0 1.668.275 2.502.551 6.673 2.204 12.79 4.409 18.629v.278c4.408 10.843 11.021 20.018 19.838 27.247 13.226 10.844 30.309 16.961 48.495 15.293h.826l48.77-4.727c-15.981 11.956-36.095 19.185-57.862 19.185m-19.288-108.714c-1.102 1.669-2.204 3.059-3.306 4.727a63 63 0 0 1-6.062 6.117 47 47 0 0 1-19.288 10.565c.551-5.282 1.654-10.287 3.582-15.014 0-.278 0-.278.276-.556 3.857-8.897 9.919-16.682 17.91-21.965 4.408-3.058 9.368-5.561 14.603-6.951-.275 3.615-.826 6.951-1.929 10.01-1.102 4.448-3.306 9.175-5.786 13.067m14.328 68.398c1.378 2.78 2.48 5.561 3.307 8.619-11.297-1.112-21.492-5.839-29.483-13.068-4.684-4.17-8.541-9.453-11.572-15.292-1.378-2.78-2.48-5.561-3.307-8.619 6.338.556 12.675 2.224 18.186 5.005 3.306 1.668 6.612 3.892 9.643 6.395 5.511 4.726 10.195 10.565 13.226 16.96m90.376-11.956c-2.48 4.727-5.235 9.176-8.542 13.624l-10.194 1.112-1.654-16.96 8.542-.834h.276c4.408-.278 8.541.278 12.399 1.946-.276.278-.551.834-.827 1.112m10.746-44.764c0 3.337-.276 6.673-.551 10.009 0 .835-.276 1.669-.276 2.503-.826 6.117-2.204 11.955-4.133 17.794-.551 1.39-.826 2.503-1.377 3.893.551-2.503.826-4.727 1.102-7.229-2.756-1.112-5.511-1.946-8.542-2.224-.826-.279-1.378-.278-2.204-.278-1.378-.279-3.031-.279-4.409-.279s-2.755 0-4.133.279h-.275l-15.981 1.668h-.276c-4.684.556-7.99 4.726-7.715 9.453l1.102 11.678.276 3.336 1.102 10.566-34.167 3.336c-.551-2.78-1.377-5.561-2.479-8.063-3.582-10.009-9.369-19.185-17.359-26.414-.827-.834-1.654-1.668-2.756-2.502 19.563-6.395 36.371-13.902 46.29-19.463 18.461-10.287 41.331-20.575 56.485-27.248v19.185zm0-42.54c-14.052 5.839-43.535 18.629-66.955 31.697-9.92 5.56-24.799 11.955-40.78 17.238.551-.834 1.378-1.39 1.929-2.224.276-.278.551-.834.827-1.113 4.959-6.672 8.817-13.901 11.297-21.686 14.327-5.283 26.451-10.844 34.442-15.293 19.563-11.121 44.361-21.965 59.24-28.36zm0-43.374c-12.675 5.283-44.637 18.629-69.711 32.809-5.786 3.336-12.95 6.673-20.941 9.731 0-.834 0-1.946-.275-2.78-.276-1.669-.827-3.059-1.653-4.449-1.653-1.946-4.133-3.336-6.613-3.336h-.827c-1.377 0-2.48.278-3.857.556-2.756.278-5.511.834-7.991 1.39a101.2 101.2 0 0 0-31.687 13.902c-5.51 3.892-10.745 8.619-15.705 13.624-13.226 1.668-24.798 1.946-33.064-.556v-28.638c.275 0 .55.278.826.278 7.44 1.39 15.43 1.946 23.696 1.946 3.031 0 6.062 0 8.817-.278 2.48-.278 5.236-.278 7.715-.556 12.4-1.39 23.697-4.171 34.167-7.507 13.226-4.171 25.349-9.454 36.646-15.014 4.133-1.947 8.542-4.171 12.675-6.117 9.644-4.727 19.012-9.453 28.931-13.624 2.756-1.112 5.511-2.502 8.542-3.337 6.337-2.502 12.675-4.448 19.563-6.116 3.306-.834 6.888-1.669 10.195-2.225v20.297zm0-43.374a148 148 0 0 0-15.981 3.337c-20.665 5.282-38.3 13.624-55.107 21.965-1.929.834-3.858 1.946-5.511 2.78-4.133 1.946-7.991 3.893-11.848 5.839l-10.746 5.005c-13.226 6.116-27.003 11.121-42.708 13.901a980 980 0 0 1-11.022 1.669c-2.204.278-4.684.556-6.888.556-4.96.278-9.644.278-14.328 0l14.052-14.736 9.093-9.454 13.501-14.18 6.338-6.672 15.154-15.571 18.461-19.184 14.052-14.458h.276l.276.278 13.776 14.18.276.278 12.95 13.346 5.786 5.838 3.858 4.171 11.021-11.4 8.266-8.619 14.053-14.458 13.777-14.458v50.047zm0-81.743-11.297 11.677-19.012 19.741L203.21 223.3l-4.133 4.449-.551-.556-16.256-16.961-19.012-19.741-.827-.834-.827.834-19.012 19.741-28.656 30.028-3.857 3.893-23.696-24.468-9.093-9.453-19.012-19.741-3.306-3.336-.827-.834v-44.208c0-2.503 0-5.005.276-7.507 0-1.669.275-3.059.55-4.727.827-7.785 2.756-15.57 5.511-22.799 2.756-6.951 6.062-13.346 10.195-19.463 4.684-7.229 10.47-13.624 16.808-19.184.275-.279.551-.279.827-.557 15.981-13.624 36.095-21.965 58.413-22.799-3.582 9.176-5.51 19.463-5.51 30.028 0 45.043 36.37 81.744 81.007 81.744 8.542 0 16.532-1.39 24.248-3.615v25.58z" fill="#000"/></svg>